<?xml version="1.0" encoding="UTF-8"?>
<svg id="svg10" width="64" height="64" version="1.1" xml:space="preserve" xmlns="http://www.w3.org/2000/svg" xmlns:xlink="http://www.w3.org/1999/xlink"><defs id="defs6"><linearGradient id="A" x1="32" x2="50.199" y1="32" y2="50.2" gradientUnits="userSpaceOnUse"><stop id="stop1" stop-color="#292c2f" offset="0"/><stop id="stop2" stop-opacity="0" offset="1"/></linearGradient><linearGradient id="B" x1="-592.82" x2="-592.82" y1="58" y2="6" gradientUnits="userSpaceOnUse"><stop id="stop3" stop-color="#bdc3c7" offset="0"/><stop id="stop4" stop-color="#dadfe1" offset="1"/></linearGradient><linearGradient id="C" x1="-184.3" x2="-184.3" y1="41" y2="23" gradientUnits="userSpaceOnUse"><stop id="stop5" stop-color="#566472" offset="0"/><stop id="stop6" stop-color="#6c7a89" offset="1"/></linearGradient></defs><g id="g10" transform="translate(-376.57 -491.8)"><g id="g8" transform="translate(376.57 491.8)"><path id="path6" d="M32 6C17.597 6 6.002 17.596 6.002 32S17.597 58 32 58s25.998-11.596 25.998-26S46.403 6 32 6zm0 23c1.662 0 3 1.338 3 3s-1.338 3-3 3-3-1.338-3-3 1.338-3 3-3z" fill="url(#B)"/><path id="path7" d="M38.125 25.375l-.555.883A8 8 0 0 1 32 40a8 8 0 0 1-6.33-3.123l-.951.498 17.965 18.309c5.77-2.598 10.401-7.229 12.998-13L38.125 25.375zm-1.1 1.752l-2.289 3.65A2.99 2.99 0 0 1 35 32c0 1.662-1.338 3-3 3-.642 0-1.232-.204-1.719-.545l-3.717 1.951A7 7 0 0 0 39 32a7 7 0 0 0-1.975-4.873z" fill="url(#A)" fill-rule="evenodd" opacity=".2"/><path id="path8" d="m32 23a8.98 8.98 0 0 0-9 9 8.98 8.98 0 0 0 9 9 8.98 8.98 0 0 0 9-9 8.98 8.98 0 0 0-9-9zm0 1a8 8 0 1 1 0 16 8 8 0 1 1 0-16zm0 1a7 7 0 1 0 0 14 7 7 0 1 0 0-14zm0 4c1.662 0 3 1.338 3 3s-1.338 3-3 3-3-1.338-3-3 1.338-3 3-3z" fill="url(#C)"/></g><path id="path9" d="M382.573 522.989v.654c0 14.489 11.595 26.154 25.998 26.154s25.998-11.665 25.998-26.154v-.654c-.344 14.183-11.814 25.809-25.998 25.809s-25.654-11.625-25.998-25.809zm25.998-7.191a8 8 0 1 0 0 16 8 8 0 1 0 0-16zm0 1a7 7 0 1 1 0 14 7 7 0 1 1 0-14z" fill="#2e3132" fill-opacity=".294"/><rect id="rect10" x="398.57" y="540.8" width="36" height="10" rx="1.7248" ry="1.7427" fill="#00008b" stroke-width=".86524"/><path id="text10" transform="scale(1.0215 .97893)" d="m397.59 560.61-0.47077-6.1291h-1.8016l-3.1868 6.1291h1.3308l0.47077-0.95061h2.209l0.0634 0.95061zm-1.4938-1.9646h-1.6749l1.4848-2.9333zm6.0929 1.9646c0.76954 0 1.1136-0.34403 1.2675-1.0683l1.0683-5.0608h-1.3218l-0.96871 4.581c-0.0543 0.2716-0.15391 0.32592-0.3893 0.32592h-1.8107c-0.19012 0-0.2716-0.0272-0.2716-0.16296 0-0.0362 9e-3 -0.0905 0.0272-0.16296l0.96871-4.581h-1.3761l-1.0683 5.0608c-0.0362 0.14485-0.0453 0.28065-0.0453 0.39835 0 0.45267 0.24444 0.66995 0.86912 0.66995zm5.5769 0c1.0774 0 1.7201-0.5432 1.9374-1.5662l0.64279-2.9967c0.0362-0.17202 0.0543-0.33498 0.0543-0.47983 0-0.71522-0.44362-1.0864-1.3399-1.0864h-3.5399l-0.25349 1.2041h3.2864c0.2535 0 0.3893 0.12675 0.3893 0.38025 0 0.0634-9e-3 0.1358-0.0272 0.20822l-0.54321 2.553c-0.0815 0.3893-0.29876 0.58847-0.60657 0.58847h-1.9284l0.69711-3.2773h-1.358l-0.9506 4.4724zm7.0797 0 0.25349-1.2222h-3.1234l0.2716-1.2856h2.2543l0.20823-0.97776h-2.2543l0.21728-0.99587h-1.4214l-0.9506 4.4814zm1.0411-4.9341 0.25349-1.195h-4.5448l-0.25349 1.195zm5.3596 4.9341-1.2312-3.1506 2.4625-2.9786h-1.4214l-1.8107 2.2633-0.85102-2.2633h-1.4938l1.195 2.8699-2.6436 3.2592h1.4666l1.9374-2.4806 0.86913 2.4806z" fill="#ff0" stroke-width=".97" aria-label="AUDEX"/><rect id="rect1" x="431.57" y="547.3" width="1.5" height="1.5" rx="1.767" ry="1.5" fill="#fb2f31" stroke-width=".99718"/></g></svg>
