<?xml version="1.0" encoding="UTF-8" standalone="no"?>
<svg
   width="64"
   height="64"
   version="1.1"
   id="svg10"
   sodipodi:docname="audex.svg"
   xml:space="preserve"
   inkscape:version="1.3.2 (091e20ef0f, 2023-11-25)"
   xmlns:inkscape="http://www.inkscape.org/namespaces/inkscape"
   xmlns:sodipodi="http://sodipodi.sourceforge.net/DTD/sodipodi-0.dtd"
   xmlns:xlink="http://www.w3.org/1999/xlink"
   xmlns="http://www.w3.org/2000/svg"
   xmlns:svg="http://www.w3.org/2000/svg"><sodipodi:namedview
     id="namedview10"
     pagecolor="#ffffff"
     bordercolor="#000000"
     borderopacity="0.25"
     inkscape:showpageshadow="2"
     inkscape:pageopacity="0.0"
     inkscape:pagecheckerboard="0"
     inkscape:deskcolor="#d1d1d1"
     inkscape:zoom="7.9159542"
     inkscape:cx="29.560555"
     inkscape:cy="34.360987"
     inkscape:window-width="1463"
     inkscape:window-height="1079"
     inkscape:window-x="0"
     inkscape:window-y="0"
     inkscape:window-maximized="0"
     inkscape:current-layer="g10" /><defs
     id="defs6"><linearGradient
       id="A"
       y1="32"
       y2="50.2"
       x1="32"
       x2="50.199"
       gradientUnits="userSpaceOnUse"><stop
         stop-color="#292c2f"
         id="stop1" /><stop
         offset="1"
         stop-opacity="0"
         id="stop2" /></linearGradient><linearGradient
       id="B"
       xlink:href="#E"
       y1="58"
       y2="6"
       x2="-592.821"
       x1="-592.821" /><linearGradient
       id="C"
       xlink:href="#F"
       y1="41"
       y2="23"
       x2="-184.303"
       x1="-184.303" /><linearGradient
       xlink:href="#F"
       id="D"
       x1="414.571"
       x2="434.571"
       y1="-618.946"
       y2="-618.946" /><linearGradient
       id="E"
       gradientUnits="userSpaceOnUse"><stop
         stop-color="#bdc3c7"
         id="stop3" /><stop
         offset="1"
         stop-color="#dadfe1"
         id="stop4" /></linearGradient><linearGradient
       id="F"
       gradientUnits="userSpaceOnUse"><stop
         stop-color="#566472"
         id="stop5" /><stop
         offset="1"
         stop-color="#6c7a89"
         id="stop6" /></linearGradient><linearGradient
       xlink:href="#E"
       id="G"
       y1="545.791"
       y2="533.791"
       x2="-.001"
       x1="-.001" /></defs><g
     transform="translate(-376.571 -491.798)"
     id="g10"><g
       transform="translate(376.571 491.798)"
       id="g8"><path
         d="M32 6C17.597 6 6.002 17.596 6.002 32S17.597 58 32 58s25.998-11.596 25.998-26S46.403 6 32 6zm0 23c1.662 0 3 1.338 3 3s-1.338 3-3 3-3-1.338-3-3 1.338-3 3-3z"
         fill="url(#B)"
         id="path6" /><path
         d="M38.125 25.375l-.555.883A8 8 0 0 1 32 40a8 8 0 0 1-6.33-3.123l-.951.498 17.965 18.309c5.77-2.598 10.401-7.229 12.998-13L38.125 25.375zm-1.1 1.752l-2.289 3.65A2.99 2.99 0 0 1 35 32c0 1.662-1.338 3-3 3-.642 0-1.232-.204-1.719-.545l-3.717 1.951A7 7 0 0 0 39 32a7 7 0 0 0-1.975-4.873z"
         fill="url(#A)"
         opacity=".2"
         fill-rule="evenodd"
         id="path7" /><path
         d="M32 23a8.98 8.98 0 0 0-9 9 8.98 8.98 0 0 0 9 9 8.98 8.98 0 0 0 9-9 8.98 8.98 0 0 0-9-9zm0 1a8 8 0 1 1 0 16 8 8 0 1 1 0-16zm0 1a7 7 0 1 0 0 14 7 7 0 1 0 0-14zm0 4c1.662 0 3 1.338 3 3s-1.338 3-3 3-3-1.338-3-3 1.338-3 3-3z"
         fill="url(#C)"
         id="path8" /></g><path
       d="M382.573 522.989v.654c0 14.489 11.595 26.154 25.998 26.154s25.998-11.665 25.998-26.154v-.654c-.344 14.183-11.814 25.809-25.998 25.809s-25.654-11.625-25.998-25.809zm25.998-7.191a8 8 0 1 0 0 16 8 8 0 1 0 0-16zm0 1a7 7 0 1 1 0 14 7 7 0 1 1 0-14z"
       fill-opacity=".294"
       fill="#2e3132"
       id="path9" /><rect
       style="fill:#00008b;fill-opacity:1;stroke-width:0.865236"
       id="rect10"
       width="36"
       height="10"
       x="398.57101"
       y="540.79797"
       rx="1.7247946"
       ry="1.742746"
       inkscape:transform-center-x="3.629786"
       inkscape:transform-center-y="2.4874164" /><path
       style="font-size:9.05337px;font-family:'Hemi Head';-inkscape-font-specification:'Hemi Head';fill:#ffff00;stroke-width:0.970005"
       d="m 397.59091,560.60895 -0.47077,-6.12913 h -1.80162 l -3.18679,6.12913 h 1.33085 l 0.47077,-0.95061 h 2.20902 l 0.0634,0.95061 z m -1.4938,-1.96458 h -1.67488 l 1.48476,-2.9333 z m 6.09292,1.96458 c 0.76954,0 1.11356,-0.34403 1.26747,-1.0683 l 1.0683,-5.06083 h -1.32179 l -0.96871,4.581 c -0.0543,0.2716 -0.15391,0.32592 -0.3893,0.32592 h -1.81067 c -0.19012,0 -0.2716,-0.0272 -0.2716,-0.16296 0,-0.0362 0.009,-0.0905 0.0272,-0.16296 l 0.96871,-4.581 h -1.37612 l -1.06829,5.06083 c -0.0362,0.14485 -0.0453,0.28065 -0.0453,0.39835 0,0.45267 0.24444,0.66995 0.86912,0.66995 z m 5.57687,0 c 1.07735,0 1.72014,-0.5432 1.93742,-1.56624 l 0.64279,-2.99666 c 0.0362,-0.17202 0.0543,-0.33498 0.0543,-0.47983 0,-0.71522 -0.44362,-1.0864 -1.3399,-1.0864 h -3.53987 l -0.25349,1.20409 h 3.28637 c 0.2535,0 0.3893,0.12675 0.3893,0.38025 0,0.0634 -0.009,0.1358 -0.0272,0.20822 l -0.54321,2.55305 c -0.0815,0.3893 -0.29876,0.58847 -0.60657,0.58847 h -1.92837 l 0.69711,-3.27732 h -1.35801 l -0.9506,4.47237 z m 7.07974,0 0.25349,-1.22221 h -3.12341 l 0.2716,-1.28558 h 2.25429 l 0.20823,-0.97776 h -2.25429 l 0.21728,-0.99587 h -1.42138 l -0.9506,4.48142 z m 1.04114,-4.93409 0.25349,-1.19504 h -4.54479 l -0.25349,1.19504 z m 5.35958,4.93409 -1.23125,-3.15058 2.46251,-2.97855 h -1.42138 l -1.81067,2.26334 -0.85102,-2.26334 h -1.4938 l 1.19504,2.86991 -2.64358,3.25922 h 1.46664 l 1.93742,-2.48063 0.86913,2.48063 z"
       id="text10"
       transform="scale(1.0215215,0.9789319)"
       aria-label="AUDEX" /><rect
       style="fill:#fb2f31;fill-opacity:1;stroke-width:0.997183"
       id="rect1"
       width="1.5"
       height="1.5"
       x="431.57101"
       y="547.29797"
       rx="1.7669729"
       ry="1.5" /></g></svg>
